<svg id="Layer_1" data-name="Layer 1" xmlns="http://www.w3.org/2000/svg" viewBox="0 0 122.88 118.2"><defs><style>.cls-1{fill-rule:evenodd;}</style></defs><title>home-address</title><path class="cls-1" d="M79.05,83.9A69.76,69.76,0,0,1,63.73,96.58a2.15,2.15,0,0,1-2.46.08A86.38,86.38,0,0,1,40,77.64C32.18,67.9,27.29,57.1,25.62,46.7c-1.7-10.55-.11-20.7,5.14-28.95A35.78,35.78,0,0,1,38.69,9C46.1,3.06,54.55-.06,63,0A34.23,34.23,0,0,1,86,9.41a34.35,34.35,0,0,1,6.15,7.49c5.64,9.3,6.86,21.16,4.38,33.18a73,73,0,0,1-17.52,33.8v0ZM25.32,75.19a3.59,3.59,0,1,1,0,7.17H18.58L9.71,111H112.92l-9.63-28.67H97.72a3.59,3.59,0,1,1,0-7.17h10.7l14.46,43H0l13.32-43ZM61.38,16.94,40.09,37.14l5,2.64L61.24,23.56,77.63,39.78l5-2.64L61.38,16.94ZM46.89,42.66h0L61.4,28.15,75.87,42.66h0V56.9H65.3v-10H57.37v10H46.89V42.66Z"/></svg>